<svg version="1.1" xmlns="http://www.w3.org/2000/svg" xmlns:xlink="http://www.w3.org/1999/xlink" width="34" height="23"><defs/><g><path fill="rgb(255,255,255)" stroke="none" paint-order="stroke fill markers" fill-rule="evenodd" d=" M 6.087371826171875 10.499365210533142 C 6.087371826171875 10.499365210533142 17.981674194335938 18.27750551700592 17.981674194335938 18.27750551700592 C 18.920089721679688 18.891371369361877 18.920089721679688 19.886249780654907 17.981674194335938 20.500115633010864 C 17.043258666992188 21.113539218902588 15.521766662597656 21.113539218902588 14.583351135253906 20.500115633010864 C 14.583351135253906 20.500115633010864 2.6890487670898438 12.721533060073853 2.6890487670898438 12.721533060073853 C 1.7506332397460938 12.108109474182129 1.7506332397460938 11.1132310628891 2.6890487670898438 10.499365210533142 C 3.6274642944335938 9.885720491409302 5.148956298828125 9.885720491409302 6.087371826171875 10.499365210533142 Z M 27.847396850585938 10.453369498252869 C 27.847396850585938 10.453369498252869 15.872871398925781 18.283918380737305 15.872871398925781 18.283918380737305 C 14.92816162109375 18.901543498039246 14.92816162109375 19.90349817276001 15.872871398925781 20.52112329006195 C 16.81769561767578 21.13896954059601 18.3494873046875 21.13896954059601 19.29419708251953 20.52112329006195 C 19.29419708251953 20.52112329006195 31.26860809326172 12.690574407577515 31.26860809326172 12.690574407577515 C 32.21343231201172 12.072728157043457 32.21343231201172 11.07099461555481 31.26860809326172 10.453369498252869 C 30.323898315429688 9.835523247718811 28.79210662841797 9.835523247718811 27.847396850585938 10.453369498252869 Z M 8.99737548828125 2.3632102012634277 C 8.99737548828125 2.3632102012634277 17.719833374023438 8.02001941204071 17.719833374023438 8.02001941204071 C 18.4080810546875 8.466487407684326 18.4080810546875 9.190035343170166 17.719833374023438 9.636282205581665 C 17.031700134277344 10.082529067993164 15.915901184082031 10.082529067993164 15.227767944335938 9.636282205581665 C 15.227767944335938 9.636282205581665 6.50531005859375 3.9794729948043823 6.50531005859375 3.9794729948043823 C 5.8170623779296875 3.53278386592865 5.8170623779296875 2.8094570636749268 6.50531005859375 2.3632102012634277 C 7.193443298339844 1.916742205619812 8.309242248535156 1.916742205619812 8.99737548828125 2.3632102012634277 Z M 24.954673767089844 2.3295979499816895 C 24.954673767089844 2.3295979499816895 16.173507690429688 8.024442076683044 16.173507690429688 8.024442076683044 C 15.480682373046875 8.474005937576294 15.480682373046875 9.202418804168701 16.173507690429688 9.651540398597717 C 16.8663330078125 10.101104259490967 17.98957061767578 10.101104259490967 18.682395935058594 9.651540398597717 C 18.682395935058594 9.651540398597717 27.46367645263672 3.9566962718963623 27.46367645263672 3.9566962718963623 C 28.15650177001953 3.5073535442352295 28.15650177001953 2.7789406776428223 27.46367645263672 2.3295979499816895 C 26.770851135253906 1.8804763555526733 25.647499084472656 1.8804763555526733 24.954673767089844 2.3295979499816895 Z"/></g></svg>